<svg height="100%" width="100%" id="svg" viewBox="0 0 1440 400" xmlns="http://www.w3.org/2000/svg" class="transition duration-300 ease-in-out delay-150"><defs><linearGradient id="gradient"><stop offset="5%" stop-color="#002bdc88"></stop><stop offset="95%" stop-color="#32ded488"></stop></linearGradient></defs><path d="M 0,400 C 0,400 0,133 0,133 C 95.77033492822966,106.83732057416267 191.54066985645932,80.67464114832536 298,91 C 404.4593301435407,101.32535885167464 521.6076555023925,148.13875598086125 623,163 C 724.3923444976075,177.86124401913875 810.0287081339712,160.77033492822966 891,139 C 971.9712918660288,117.22966507177034 1048.2775119617224,90.77990430622009 1139,89 C 1229.7224880382776,87.22009569377991 1334.8612440191387,110.11004784688996 1440,133 C 1440,133 1440,400 1440,400 Z" stroke="none" stroke-width="0" fill="url(#gradient)" class="transition-all duration-300 ease-in-out delay-150"></path><defs><linearGradient id="gradient"><stop offset="5%" stop-color="#002bdcff"></stop><stop offset="95%" stop-color="#32ded4ff"></stop></linearGradient></defs><path d="M 0,400 C 0,400 0,266 0,266 C 103.2153110047847,252.28708133971293 206.4306220095694,238.57416267942583 299,238 C 391.5693779904306,237.42583732057417 473.4928229665072,249.9904306220096 562,248 C 650.5071770334928,246.0095693779904 745.5980861244019,229.4641148325359 854,230 C 962.4019138755981,230.5358851674641 1084.1148325358852,248.1531100478469 1184,257 C 1283.8851674641148,265.8468899521531 1361.9425837320573,265.92344497607655 1440,266 C 1440,266 1440,400 1440,400 Z" stroke="none" stroke-width="0" fill="url(#gradient)" class="transition-all duration-300 ease-in-out delay-150"></path></svg>
